# Blender v3.0.0 OBJ File: 'untitккккled.blend'
# www.blender.org
mtllib BITA.mtl
o Cylinder
v -0.000000 -1.114235 -0.062309
v 0.000000 1.666620 -0.100000
v 0.044059 -1.114235 -0.044059
v 0.070711 1.666620 -0.070711
v 0.062309 -1.114235 0.000000
v 0.100000 1.666620 0.000000
v 0.044059 -1.114235 0.044059
v 0.070711 1.666620 0.070711
v -0.000000 -1.114235 0.062309
v -0.000000 1.666620 0.100000
v -0.044059 -1.114235 0.044059
v -0.070711 1.666620 0.070711
v -0.062309 -1.114235 -0.000000
v -0.100000 1.666620 -0.000000
v -0.044059 -1.114235 -0.044059
v -0.070711 1.666620 -0.070711
v 0.046070 1.737719 -0.046070
v -0.000000 1.737719 -0.065152
v 0.065152 1.737719 0.000000
v 0.046070 1.737719 0.046070
v -0.000000 1.737719 0.065152
v -0.046070 1.737719 0.046070
v -0.065152 1.737719 -0.000000
v -0.046070 1.737719 -0.046070
v -0.000000 0.388310 -0.091983
v 0.065042 0.388310 -0.065042
v 0.091983 0.388310 0.000000
v 0.065042 0.388310 0.065042
v -0.000000 0.388310 0.091983
v -0.065042 0.388310 0.065042
v -0.091983 0.388310 -0.000000
v -0.065042 0.388310 -0.065042
v -0.000000 -1.513484 -0.062309
v 0.044059 -1.513484 -0.044059
v 0.062309 -1.513484 0.000000
v 0.044059 -1.513484 0.044059
v -0.000000 -1.513484 0.062309
v -0.044059 -1.513484 0.044059
v -0.062309 -1.513484 -0.000000
v -0.044059 -1.513484 -0.044059
v -0.000000 -1.857024 0.000000
v -0.000000 -1.838405 -0.059076
v -0.000000 -1.742077 -0.105913
v -0.000000 -1.817069 -0.090984
v -0.000000 -1.778286 -0.109841
v 0.074892 -1.742077 -0.074892
v 0.041772 -1.838405 -0.041773
v 0.077669 -1.778286 -0.077670
v 0.064335 -1.817069 -0.064335
v 0.105913 -1.742077 0.000000
v 0.059075 -1.838405 0.000000
v 0.109841 -1.778286 0.000000
v 0.090984 -1.817069 0.000000
v 0.074892 -1.742077 0.074892
v 0.041772 -1.838405 0.041773
v 0.077669 -1.778286 0.077670
v 0.064335 -1.817069 0.064335
v -0.000000 -1.742077 0.105913
v -0.000000 -1.838405 0.059076
v -0.000000 -1.778286 0.109841
v -0.000000 -1.817069 0.090984
v -0.074892 -1.742077 0.074892
v -0.041773 -1.838405 0.041773
v -0.077670 -1.778286 0.077670
v -0.064336 -1.817069 0.064335
v -0.105913 -1.742077 -0.000000
v -0.059076 -1.838405 -0.000000
v -0.109842 -1.778286 -0.000000
v -0.090984 -1.817069 -0.000000
v -0.074892 -1.742077 -0.074892
v -0.041773 -1.838405 -0.041773
v -0.077670 -1.778286 -0.077670
v -0.064336 -1.817069 -0.064335
vt 1.000000 0.750000
vt 1.000000 1.000000
vt 0.875000 1.000000
vt 0.875000 0.750000
vt 0.750000 1.000000
vt 0.750000 0.750000
vt 0.625000 1.000000
vt 0.625000 0.750000
vt 0.500000 1.000000
vt 0.500000 0.750000
vt 0.375000 1.000000
vt 0.375000 0.750000
vt 0.250000 1.000000
vt 0.250000 0.750000
vt 0.625000 1.000000
vt 0.500000 1.000000
vt 0.125000 1.000000
vt 0.125000 0.750000
vt 0.000000 1.000000
vt 0.000000 0.750000
vt 0.419706 0.419706
vt 0.250000 0.490000
vt 0.080294 0.419706
vt 0.010000 0.250000
vt 0.080294 0.080294
vt 0.250000 0.010000
vt 0.419706 0.080294
vt 0.490000 0.250000
vt 0.250000 1.000000
vt 0.125000 1.000000
vt 0.875000 1.000000
vt 0.750000 1.000000
vt 0.375000 1.000000
vt 0.000000 1.000000
vt 1.000000 1.000000
vt 0.125000 0.500000
vt 0.000000 0.500000
vt 0.250000 0.500000
vt 0.375000 0.500000
vt 0.500000 0.500000
vt 0.625000 0.500000
vt 0.750000 0.500000
vt 0.875000 0.500000
vt 1.000000 0.500000
vt 0.375000 0.500000
vt 0.500000 0.500000
vt 0.750000 0.500000
vt 0.686166 0.500000
vt 0.750000 0.500000
vt 0.000000 0.500000
vt 0.125000 0.500000
vt 0.875000 0.500000
vt 1.000000 0.500000
vt 0.625000 0.500000
vt 0.750000 0.500000
vt 0.250000 0.500000
vt 0.875000 0.500000
vt 0.811166 0.500000
vt 0.875000 0.500000
vt 0.375000 0.500000
vt 0.311166 0.500000
vt 0.375000 0.500000
vt 0.625000 0.500000
vt 0.561166 0.500000
vt 0.625000 0.500000
vt 0.125000 0.500000
vt 0.061166 0.500000
vt 0.125000 0.500000
vt 0.875000 0.500000
vt 1.000000 0.500000
vt 0.250000 0.500000
vt 0.186166 0.500000
vt 0.250000 0.500000
vt 0.500000 0.500000
vt 0.436166 0.500000
vt 0.500000 0.500000
vt 0.250000 0.500000
vt 0.375000 0.500000
vt 0.500000 0.500000
vt 0.625000 0.500000
vt 0.750000 0.500000
vt 0.125000 0.500000
vt 0.000000 0.500000
vt 0.876011 0.500000
vt 0.998989 0.500000
vt 0.901163 0.500000
vt 0.999476 0.500000
vt 0.936166 0.500000
vt 1.000000 0.500000
vt 0.751011 0.500000
vt 0.873989 0.500000
vt 0.776163 0.500000
vt 0.874476 0.500000
vt 0.626011 0.500000
vt 0.748989 0.500000
vt 0.651163 0.500000
vt 0.749476 0.500000
vt 0.501011 0.500000
vt 0.623989 0.500000
vt 0.526163 0.500000
vt 0.624476 0.500000
vt 0.376011 0.500000
vt 0.498989 0.500000
vt 0.401163 0.500000
vt 0.499476 0.500000
vt 0.251011 0.500000
vt 0.373989 0.500000
vt 0.276163 0.500000
vt 0.374476 0.500000
vt 0.126011 0.500000
vt 0.248989 0.500000
vt 0.151163 0.500000
vt 0.249476 0.500000
vt 0.001011 0.500000
vt 0.123989 0.500000
vt 0.026163 0.500000
vt 0.124476 0.500000
vt 1.000000 0.500000
vn 0.3827 -0.0058 -0.9239
vn 0.9239 -0.0058 -0.3827
vn 0.9239 -0.0058 0.3827
vn 0.3827 -0.0058 0.9239
vn -0.3827 -0.0058 0.9239
vn -0.9239 -0.0058 0.3827
vn 0.3486 0.4125 0.8416
vn -0.9239 -0.0058 -0.3827
vn -0.3827 -0.0058 -0.9239
vn 0.0000 1.0000 -0.0000
vn -0.8416 0.4125 -0.3486
vn 0.8416 0.4125 -0.3486
vn -0.3486 0.4125 0.8416
vn -0.3486 0.4125 -0.8416
vn 0.3486 0.4125 -0.8416
vn 0.8416 0.4125 0.3486
vn -0.8416 0.4125 0.3486
vn -0.3826 -0.0182 -0.9237
vn -0.9237 -0.0182 -0.3826
vn -0.9237 -0.0182 0.3826
vn -0.3826 -0.0182 0.9237
vn 0.3826 -0.0182 0.9237
vn 0.9237 -0.0182 0.3826
vn 0.9237 -0.0182 -0.3826
vn 0.3826 -0.0182 -0.9237
vn -0.3827 0.0000 0.9239
vn 0.2983 -0.9464 0.1236
vn -0.3827 0.0000 -0.9239
vn 0.3827 -0.0000 -0.9239
vn 0.9239 -0.0000 0.3827
vn -0.9239 0.0000 0.3827
vn 0.3827 -0.0000 0.9239
vn -0.9239 0.0000 -0.3827
vn 0.9239 -0.0000 -0.3827
vn 0.2983 -0.9464 -0.1236
vn -0.2983 -0.9464 0.1236
vn 0.1236 -0.9464 0.2983
vn -0.1236 -0.9464 -0.2983
vn 0.3769 0.1736 -0.9099
vn -0.2983 -0.9464 -0.1236
vn -0.1236 -0.9464 0.2983
vn -0.9099 0.1736 0.3769
vn 0.3769 0.1736 0.9099
vn 0.9099 0.1736 -0.3769
vn -0.9099 0.1736 -0.3769
vn -0.3769 0.1736 0.9099
vn 0.9099 0.1736 0.3769
vn -0.3769 0.1736 -0.9099
vn 0.3808 0.0997 -0.9193
vn 0.3491 -0.4098 -0.8428
vn 0.2244 -0.8101 -0.5417
vn 0.9193 0.0997 -0.3808
vn 0.8428 -0.4098 -0.3491
vn 0.5417 -0.8101 -0.2244
vn 0.9193 0.0997 0.3808
vn 0.8428 -0.4098 0.3491
vn 0.5417 -0.8101 0.2244
vn 0.3808 0.0997 0.9193
vn 0.3491 -0.4098 0.8428
vn 0.2244 -0.8101 0.5417
vn -0.3808 0.0997 0.9193
vn -0.3491 -0.4098 0.8428
vn -0.2244 -0.8101 0.5417
vn -0.9193 0.0997 0.3808
vn -0.8428 -0.4098 0.3491
vn -0.5417 -0.8101 0.2244
vn -0.9193 0.0997 -0.3808
vn -0.8428 -0.4098 -0.3491
vn -0.5417 -0.8101 -0.2244
vn -0.3808 0.0997 -0.9193
vn -0.3491 -0.4098 -0.8428
vn -0.2244 -0.8101 -0.5417
vn 0.1236 -0.9464 -0.2983
usemtl Material.001
s off
f 25/1/1 2/2/1 4/3/1 26/4/1
f 26/4/2 4/3/2 6/5/2 27/6/2
f 27/6/3 6/5/3 8/7/3 28/8/3
f 28/8/4 8/7/4 10/9/4 29/10/4
f 29/10/5 10/9/5 12/11/5 30/12/5
f 30/12/6 12/11/6 14/13/6 31/14/6
f 10/9/7 8/7/7 20/15/7 21/16/7
f 31/14/8 14/13/8 16/17/8 32/18/8
f 32/18/9 16/17/9 2/19/9 25/20/9
f 17/21/10 18/22/10 24/23/10 23/24/10 22/25/10 21/26/10 20/27/10 19/28/10
f 16/17/11 14/13/11 23/29/11 24/30/11
f 6/5/12 4/3/12 17/31/12 19/32/12
f 12/11/13 10/9/13 21/16/13 22/33/13
f 2/19/14 16/17/14 24/30/14 18/34/14
f 4/3/15 2/2/15 18/35/15 17/31/15
f 8/7/16 6/5/16 19/32/16 20/15/16
f 14/13/17 12/11/17 22/33/17 23/29/17
f 15/36/18 32/18/18 25/20/18 1/37/18
f 13/38/19 31/14/19 32/18/19 15/36/19
f 11/39/20 30/12/20 31/14/20 13/38/20
f 9/40/21 29/10/21 30/12/21 11/39/21
f 7/41/22 28/8/22 29/10/22 9/40/22
f 5/42/23 27/6/23 28/8/23 7/41/23
f 3/43/24 26/4/24 27/6/24 5/42/24
f 1/44/25 25/1/25 26/4/25 3/43/25
usemtl Material.002
f 9/40/26 11/39/26 38/45/26 37/46/26
f 51/47/27 55/48/27 41/49/27
f 15/36/28 1/37/28 33/50/28 40/51/28
f 1/44/29 3/43/29 34/52/29 33/53/29
f 5/42/30 7/41/30 36/54/30 35/55/30
f 11/39/31 13/38/31 39/56/31 38/45/31
f 7/41/32 9/40/32 37/46/32 36/54/32
f 13/38/33 15/36/33 40/51/33 39/56/33
f 3/43/34 5/42/34 35/55/34 34/52/34
f 47/57/35 51/58/35 41/59/35
f 63/60/36 67/61/36 41/62/36
f 55/63/37 59/64/37 41/65/37
f 71/66/38 42/67/38 41/68/38
f 33/53/39 34/52/39 46/69/39 43/70/39
f 67/71/40 71/72/40 41/73/40
f 59/74/41 63/75/41 41/76/41
f 38/45/42 39/56/42 66/77/42 62/78/42
f 36/54/43 37/46/43 58/79/43 54/80/43
f 34/52/44 35/55/44 50/81/44 46/69/44
f 39/56/45 40/51/45 70/82/45 66/77/45
f 37/46/46 38/45/46 62/78/46 58/79/46
f 35/55/47 36/54/47 54/80/47 50/81/47
f 40/51/48 33/50/48 43/83/48 70/82/48
f 43/70/49 46/69/49 48/84/49 45/85/49
f 45/85/50 48/84/50 49/86/50 44/87/50
f 44/87/51 49/86/51 47/88/51 42/89/51
f 46/69/52 50/81/52 52/90/52 48/91/52
f 48/91/53 52/90/53 53/92/53 49/93/53
f 49/93/54 53/92/54 51/58/54 47/57/54
f 50/81/55 54/80/55 56/94/55 52/95/55
f 52/95/56 56/94/56 57/96/56 53/97/56
f 53/97/57 57/96/57 55/48/57 51/47/57
f 54/80/58 58/79/58 60/98/58 56/99/58
f 56/99/59 60/98/59 61/100/59 57/101/59
f 57/101/60 61/100/60 59/64/60 55/63/60
f 58/79/61 62/78/61 64/102/61 60/103/61
f 60/103/62 64/102/62 65/104/62 61/105/62
f 61/105/63 65/104/63 63/75/63 59/74/63
f 62/78/64 66/77/64 68/106/64 64/107/64
f 64/107/65 68/106/65 69/108/65 65/109/65
f 65/109/66 69/108/66 67/61/66 63/60/66
f 66/77/67 70/82/67 72/110/67 68/111/67
f 68/111/68 72/110/68 73/112/68 69/113/68
f 69/113/69 73/112/69 71/72/69 67/71/69
f 70/82/70 43/83/70 45/114/70 72/115/70
f 72/115/71 45/114/71 44/116/71 73/117/71
f 73/117/72 44/116/72 42/67/72 71/66/72
f 42/89/73 47/88/73 41/118/73
