# Alias OBJ Model File
# Exported from SketchUp, (c) 2000-2012 Trimble Navigation Limited
# File units = millimeters

mtllib kno.mtl

g Mesh1 Model

usemtl FrontColor
v 2924.62 159 3121.74
vt 115.143 -122.903
vn 0 1 -0
v 2924.62 159 2118.21
vt 115.143 -83.3942
v 4807 159 2118.21
vt 189.252 -83.3942
v 4807 159 1636.12
vt 189.252 -64.4141
v 2924.62 159 1636.12
vt 115.143 -64.4141
v 2924.62 159 662.735
vt 115.143 -26.0919
v 2558.59 159 662.735
vt 100.732 -26.0919
v 2558.59 159 1636.12
vt 100.732 -64.4141
v 628.998 159 1636.12
vt 24.7637 -64.4141
v 628.998 159 2118.21
vt 24.7637 -83.3942
v 2558.59 159 2118.21
vt 100.732 -83.3942
v 2558.59 159 3121.74
vt 100.732 -122.903
f 1/1/1 2/2/1 3/3/1 4/4/1 5/5/1 6/6/1 7/7/1 8/8/1 9/9/1 10/10/1 11/11/1 12/12/1 

v 2924.62 0 3121.74
vt -122.903 0
vn 1 0 3.59689e-16
v 2924.62 0 2118.21
vt -83.3942 0
vt -83.3942 6.25984
vt -122.903 6.25984
f 13/13/2 14/14/2 2/15/2 1/16/2 

vt -115.143 -122.903
vn 0 -1 -0
v 2924.62 0 1636.12
vt -115.143 -64.4141
vt -115.143 -83.3942
f 13/17/3 15/18/3 14/19/3

v 2924.62 0 662.735
vt -115.143 -26.0919
f 15/18/3 13/17/3 16/20/3

v 2558.59 0 2118.21
vt -100.732 -83.3942
f 13/17/3 17/21/3 16/20/3

v 2558.59 0 3121.74
vt -100.732 -122.903
f 13/17/3 18/22/3 17/21/3

vt 100.732 0
vn 0 0 1
vt 115.143 0
vt 115.143 6.25984
vt 100.732 6.25984
f 18/23/4 13/24/4 1/25/4 12/26/4 

v 5022.04 0 3441.15
vt -197.718 -135.479
f 19/27/3 18/22/3 13/17/3

v 628.998 0 3121.74
vt -24.7637 -122.903
f 19/27/3 20/28/3 18/22/3

v 408.036 0 3441.15
vt -16.0644 -135.479
f 21/29/3 20/28/3 19/27/3

v 628.998 0 662.735
vt -24.7637 -26.0919
f 20/28/3 21/29/3 22/30/3

v 408.036 0 357.155
vt -16.0644 -14.0612
f 23/31/3 22/30/3 21/29/3

v 5022.04 0 357.155
vt -197.718 -14.0612
f 22/30/3 23/31/3 24/32/3

vt -197.718 0
vn 0 0 -1
vt -16.0644 0
v 408.036 340 357.155
vt -16.0644 13.3858
v 5022.04 340 357.155
vt -197.718 13.3858
f 24/33/5 23/34/5 25/35/5 26/36/5 

vt 14.0612 0
vn -1 0 -0
vt 135.479 0
v 408.036 340 3441.15
vt 135.479 13.3858
vt 14.0612 13.3858
f 23/37/6 21/38/6 27/39/6 25/40/6 

vt 16.0644 0
vt 197.718 0
v 5022.04 340 3441.15
vt 197.718 13.3858
vt 16.0644 13.3858
f 21/41/4 19/42/4 28/43/4 27/44/4 

vt -135.479 0
vn 1 0 -0
vt -14.0612 0
vt -14.0612 13.3858
vt -135.479 13.3858
f 19/45/7 24/46/7 26/47/7 28/48/7 

v 4807 0 3121.74
vt -189.252 -122.903
f 19/27/3 29/49/3 24/32/3

f 19/27/3 13/17/3 29/49/3

vt -189.252 0
vt -115.143 0
vt -115.143 6.25984
v 2924.62 340 3121.74
vt -115.143 13.3858
v 4807 340 3121.74
vt -189.252 13.3858
f 29/50/5 13/51/5 1/52/5 30/53/5 31/54/5 

vt -122.903 13.3858
vn 1 -2.09281e-32 3.59689e-16
v 2924.62 340 2118.21
vt -83.3942 13.3858
f 30/55/8 1/16/8 2/15/8 32/56/8 

vt 115.143 13.3858
vt 189.252 6.25984
v 4807 340 2118.21
vt 189.252 13.3858
f 32/57/4 2/25/4 3/58/4 33/59/4 

v 4807 0 2118.21
vt 189.252 0
f 14/24/4 34/60/4 3/58/4 2/25/4 

v 4807 0 1636.12
vt -189.252 -64.4141
vt -189.252 -83.3942
f 14/19/3 35/61/3 34/62/3

f 14/19/3 15/18/3 35/61/3

vt -189.252 6.25984
f 35/50/5 15/51/5 5/52/5 4/63/5 

vt -64.4141 0
vn 1 0 -3.70826e-16
vt -26.0919 0
vt -26.0919 6.25984
vt -64.4141 6.25984
f 15/64/9 16/65/9 6/66/9 5/67/9 

v 2558.59 0 662.735
vt -100.732 0
vt -100.732 6.25984
f 16/51/5 36/68/5 7/69/5 6/52/5 

vt -100.732 -26.0919
f 36/70/3 24/32/3 16/20/3

f 22/30/3 24/32/3 36/70/3

vt 24.7637 0
v 2558.59 340 662.735
vt 100.732 13.3858
v 628.998 340 662.735
vt 24.7637 13.3858
f 22/71/4 36/23/4 7/26/4 37/72/4 38/73/4 

vt 26.0919 0
vn -1 0 3.70826e-16
v 2558.59 0 1636.12
vt 64.4141 0
vt 64.4141 6.25984
vt 26.0919 6.25984
f 36/74/10 39/75/10 8/76/10 7/77/10 

vt -100.732 -64.4141
f 36/70/3 16/20/3 39/78/3

f 39/78/3 16/20/3 17/21/3

v 628.998 0 2118.21
vt -24.7637 -83.3942
f 40/79/3 39/78/3 17/21/3

v 628.998 0 1636.12
vt -24.7637 -64.4141
f 39/78/3 40/79/3 41/80/3

vt 83.3942 0
vt 83.3942 6.25984
f 41/75/6 40/81/6 10/82/6 9/76/6 

f 20/28/3 41/80/3 40/79/3

f 20/28/3 22/30/3 41/80/3

vt -26.0919 13.3858
v 628.998 340 1636.12
vt -64.4141 13.3858
f 41/64/7 22/65/7 38/83/7 42/84/7 9/67/7 

vt 24.7637 -26.0919
v 628.998 340 2118.21
f 38/85/1 43/10/1 42/9/1

v 628.998 340 3121.74
vt 24.7637 -122.903
f 38/85/1 44/86/1 43/10/1

vt 16.0644 -14.0612
f 38/85/1 25/87/1 44/86/1

vt 197.718 -14.0612
f 25/87/1 38/85/1 26/88/1

f 26/88/1 38/85/1 37/7/1

v 2924.62 340 662.735
f 26/88/1 37/7/1 45/6/1

v 2558.59 340 1636.12
f 45/6/1 37/7/1 46/8/1

vt 26.0919 13.3858
vn -1 -4.61853e-32 3.70826e-16
vt 64.4141 13.3858
f 37/89/11 7/77/11 8/76/11 46/90/11 

vt -100.732 13.3858
vt -24.7637 6.25984
vt -24.7637 13.3858
f 46/91/5 8/69/5 9/92/5 42/93/5 

vt -24.7637 0
f 39/68/5 41/94/5 9/92/5 8/69/5 

v 2558.59 340 2118.21
f 42/9/1 47/11/1 46/8/1

f 47/11/1 42/9/1 43/10/1

vt 24.7637 6.25984
f 43/73/4 10/95/4 11/26/4 47/72/4 

f 20/13/7 40/14/7 10/15/7 43/56/7 44/55/7 

f 40/71/4 17/23/4 11/26/4 10/95/4 

vn -1 0 -3.59689e-16
vt 122.903 0
vt 122.903 6.25984
f 17/81/12 18/96/12 12/97/12 11/82/12 

v 2558.59 340 3121.74
f 18/68/5 20/94/5 44/93/5 48/91/5 12/69/5 

vt 197.718 -135.479
f 44/86/1 28/98/1 48/12/1

vt 16.0644 -135.479
f 44/86/1 27/99/1 28/98/1

f 27/99/1 44/86/1 25/87/1

f 48/12/1 28/98/1 30/1/1

vt 189.252 -122.903
f 30/1/1 28/98/1 31/100/1

f 31/100/1 28/98/1 33/3/1

v 4807 340 1636.12
f 33/3/1 28/98/1 49/4/1

v 4807 340 662.735
vt 189.252 -26.0919
f 49/4/1 28/98/1 50/101/1

f 26/88/1 50/101/1 28/98/1

f 26/88/1 45/6/1 50/101/1

v 4807 0 662.735
f 16/24/4 51/60/4 50/59/4 45/57/4 6/25/4 

vt -189.252 -26.0919
f 16/20/3 24/32/3 51/102/3

f 51/102/3 24/32/3 35/61/3

f 35/61/3 24/32/3 34/62/3

f 34/62/3 24/32/3 29/49/3

vt 122.903 13.3858
vt 83.3942 13.3858
f 34/81/6 29/96/6 31/103/6 33/104/6 3/82/6 

f 34/14/7 35/64/7 4/67/7 3/15/7 

f 51/74/6 35/75/6 4/76/6 49/90/6 50/89/6 

v 2924.62 340 1636.12
f 49/54/5 4/63/5 5/52/5 52/53/5 

vn 1 -4.61853e-32 -3.70826e-16
f 52/84/13 5/67/13 6/66/13 45/83/13 

f 45/6/1 32/2/1 52/5/1

f 32/2/1 45/6/1 30/1/1

f 45/6/1 46/8/1 30/1/1

f 47/11/1 30/1/1 46/8/1

f 48/12/1 30/1/1 47/11/1

vn -1 -8.6805e-32 -3.59689e-16
f 47/104/14 11/82/14 12/97/14 48/103/14 

f 52/5/1 32/2/1 33/3/1

f 52/5/1 33/3/1 49/4/1

